<?xml version="1.0" standalone="no"?><!DOCTYPE svg PUBLIC "-//W3C//DTD SVG 1.1//EN" "http://www.w3.org/Graphics/SVG/1.1/DTD/svg11.dtd"><svg t="1684476115897" class="icon" viewBox="0 0 1024 1024" version="1.1" xmlns="http://www.w3.org/2000/svg" p-id="5363" xmlns:xlink="http://www.w3.org/1999/xlink" width="200" height="200"><path d="M139.592985 174.285672l0 675.402033c0 38.608298 19.544267 57.927295 58.597987 57.927295l624.108955 0c41.407797 0 62.137806-19.318997 62.137806-57.927295l0-675.402033c0-38.608298-20.728985-57.90272-62.137806-57.90272L198.189948 116.382952C159.136228 116.382952 139.592985 135.677374 139.592985 174.285672L139.592985 174.285672zM236.688683 837.207717c-18.364669 0-27.523964-10.539589-27.523964-31.608528L209.164719 216.553593c0-20.47402 9.159295-30.698231 27.523964-30.698231l547.112509 0c20.699291 0 31.068903 10.224211 31.068903 30.698231l0 589.045596c0 21.068939-10.369612 31.608528-31.068903 31.608528L236.688683 837.207717z" fill="#8a8a8a" p-id="5364"></path><path d="M628.267245 348.937921l0-82.451065c-1.179598-21.474426-17.178926-32.793247-36.408839-33.95339-19.228888 1.160143-32.319155 12.479988-33.478274 33.95339l0 82.451065L286.391556 348.937921c-20.383912 0-30.569212 15.978849-30.569212 36.293132 0 20.338858 10.184276 33.408645 30.569212 33.408645l250.149622 0c-22.128735 31.363803-42.517766 50.523062-69.876873 74.90655-40.188264 38.313399-103.955186 86.536653-200.066861 144.604231-6.409971 8.139434-9.589357 15.978849-9.589357 23.524388 0 20.338858 11.3393 30.479104 34.063977 30.479104 10.479176 0 19.499213 0.879579 27.069327-6.099712 29.114169-13.333968 63.177123-35.698213 102.205243-67.062015 31.448791-22.659144 57.947774-46.452833 96.965655-85.95095 15.139204-15.08903 28.848964-29.60874 41.067843-43.538651l0 173.582214c0 38.328758-6.129407 65.48717-52.567904 65.48717-32.968343 0-42.378508-20.458661-67.837151-20.458661-26.178485 0-43.08811 19.259607-42.358029 34.528854 1.449923 47.267903 86.675912 47.798312 129.264331 47.798312 72.797199 0 103.385866-42.248466 103.385866-128.199416l0-243.599369 109.195798 0c20.378792 0 30.558973-13.069787 30.558973-33.408645 0-20.314283-10.179156-36.293132-30.558973-36.293132L628.267245 348.939969z" fill="#8a8a8a" p-id="5365"></path></svg>